<svg width="320" height="72" viewBox="0 0 320 72" fill="none" xmlns="http://www.w3.org/2000/svg">
  <rect width="72" height="72" rx="22" fill="url(#paint0_linear_1_2)"/>
  <path d="M18 20.5H50.5V27H25V35H46.5V41H25V51.5H51V58H18V20.5Z" fill="white"/>
  <path d="M56 20.5H63V58H56V20.5Z" fill="white" fill-opacity="0.95"/>
  <path d="M86 25H107.6C119.8 25 126.6 31.6 126.6 41.1C126.6 50.5 119.8 57 107.6 57H86V25ZM107.1 50.9C115.1 50.9 119.3 46.9 119.3 41.1C119.3 35.2 115.1 31.1 107.1 31.1H93.1V50.9H107.1Z" fill="#0B1F3A"/>
  <path d="M133.746 25H158.276V30.8H140.846V38.3H156.446V44H140.846V51.2H158.886V57H133.746V25Z" fill="#0B1F3A"/>
  <path d="M165.115 25H172.215V51H188.215V57H165.115V25Z" fill="#0B1F3A"/>
  <path d="M193.721 25H218.251V30.8H200.821V38.3H216.421V44H200.821V51.2H218.861V57H193.721V25Z" fill="#0B1F3A"/>
  <path d="M224.692 25H231.792V38.8L245.632 25H254.282L241.232 38.3L255.022 57H246.332L236.422 43.3L231.792 47.9V57H224.692V25Z" fill="#0B1F3A"/>
  <defs>
    <linearGradient id="paint0_linear_1_2" x1="9.5" y1="6" x2="64" y2="65.5" gradientUnits="userSpaceOnUse">
      <stop stop-color="#0B1F3A"/>
      <stop offset="0.55" stop-color="#2563EB"/>
      <stop offset="1" stop-color="#F97316"/>
    </linearGradient>
  </defs>
</svg>
